<svg xmlns="http://www.w3.org/2000/svg">
  <defs>
<symbol id="top_button" viewBox="0 0 24 24"><g id="top_button" fill="none" stroke="currentColor" stroke-width="1.8" stroke-linecap="round" stroke-linejoin="round">
  <circle cx="12" cy="12" r="8"/>
  <circle cx="8" cy="12" r="0.8" fill="currentColor" stroke="none"/>
  <circle cx="12" cy="12" r="0.8" fill="currentColor" stroke="none"/>
  <circle cx="16" cy="12" r="0.8" fill="currentColor" stroke="none"/>
</g></symbol>
<symbol id="tab_feed" viewBox="0 0 24 24"><g id="tab_feed" fill="none" stroke="currentColor" stroke-width="1.8" stroke-linecap="round" stroke-linejoin="round">
  <path d="M4.5 10.5L12 4.5l7.5 6"/>
  <path d="M6.5 9.5V19h11V9.5"/>
  <path d="M10 19v-5h4v5"/>
</g></symbol>
<symbol id="tab_replies" viewBox="0 0 24 24"><g id="tab_replies" fill="none" stroke="currentColor" stroke-width="1.8" stroke-linecap="round" stroke-linejoin="round">
  <path d="M7.5 18.5H6a2.5 2.5 0 0 1-2.5-2.5V8A2.5 2.5 0 0 1 6 5.5h12A2.5 2.5 0 0 1 20.5 8v8a2.5 2.5 0 0 1-2.5 2.5H10l-4.5 3v-3Z"/>
  <path d="M8 10h8"/>
  <path d="M8 14h5.5"/>
</g></symbol>
<symbol id="tab_music" viewBox="0 0 24 24"><g id="tab_music" fill="none" stroke="currentColor" stroke-width="1.8" stroke-linecap="round" stroke-linejoin="round">
  <path d="M10 6v10.5"/>
  <path d="M10 6l7-1.5v9.5"/>
  <circle cx="8" cy="18" r="2.2"/>
  <circle cx="17" cy="16.5" r="2.2"/>
</g></symbol>
<symbol id="tab_likes" viewBox="0 0 24 24"><g id="tab_likes" fill="none" stroke="currentColor" stroke-width="1.8" stroke-linecap="round" stroke-linejoin="round">
  <path d="M12 19.5s-6.5-4.1-6.5-8.8A3.7 3.7 0 0 1 12 8.4a3.7 3.7 0 0 1 6.5 2.3c0 4.7-6.5 8.8-6.5 8.8Z"/>
</g></symbol>
<symbol id="meta_time" viewBox="0 0 24 24"><g id="meta_time" fill="none" stroke="currentColor" stroke-width="1.8" stroke-linecap="round" stroke-linejoin="round">
  <circle cx="12" cy="12" r="8"/>
  <path d="M12 8v4.2l3 1.8"/>
</g></symbol>
<symbol id="meta_date" viewBox="0 0 24 24"><g id="meta_date" fill="none" stroke="currentColor" stroke-width="1.8" stroke-linecap="round" stroke-linejoin="round">
  <rect x="4.5" y="6.5" width="15" height="13" rx="3"/>
  <path d="M8 4.5v4"/>
  <path d="M16 4.5v4"/>
  <path d="M4.5 10.5h15"/>
  <path d="M8.5 14h2"/>
  <path d="M13.5 14h2"/>
</g></symbol>
<symbol id="meta_place" viewBox="0 0 24 24"><g id="meta_place" fill="none" stroke="currentColor" stroke-width="1.8" stroke-linecap="round" stroke-linejoin="round">
  <path d="M12 20s5-4.9 5-9a5 5 0 1 0-10 0c0 4.1 5 9 5 9Z"/>
  <circle cx="12" cy="11" r="1.8"/>
</g></symbol>
<symbol id="meta_look" viewBox="0 0 24 24"><g id="meta_look" fill="none" stroke="currentColor" stroke-width="1.8" stroke-linecap="round" stroke-linejoin="round">
  <path d="M2.5 12s3.3-5 9.5-5 9.5 5 9.5 5-3.3 5-9.5 5-9.5-5-9.5-5Z"/>
  <circle cx="12" cy="12" r="2.5"/>
</g></symbol>
<symbol id="stat_love" viewBox="0 0 24 24"><g id="stat_love" fill="none" stroke="currentColor" stroke-width="1.6" stroke-linecap="round" stroke-linejoin="round">
  <path d="M4 17.5h16" opacity="0.35"/>
  <path d="M4 17.5h8" />
  <rect x="10.2" y="15.2" width="3.6" height="4.6" rx="1.8" fill="currentColor" stroke="none"/>
  <path d="M7.5 8.8c.8-1.2 2.5-1.4 3.4-.2.9-1.2 2.6-1 3.4.2 1 1.5-.2 3.1-3.4 5.2-3.2-2.1-4.4-3.7-3.4-5.2Z"/>
</g></symbol>
<symbol id="stat_heat" viewBox="0 0 24 24"><g id="stat_heat" fill="none" stroke="currentColor" stroke-width="1.6" stroke-linecap="round" stroke-linejoin="round">
  <path d="M4 17.5h16" opacity="0.35"/>
  <rect x="5.2" y="15.2" width="3.6" height="4.6" rx="1.8" fill="currentColor" stroke="none"/>
  <path d="M15.3 18c-1.2-1.4-1-3.3.5-4.8.2 1.2 1 1.6 1 1.6.6-.7 1-1.6 1-2.8 1.7 1.5 2.3 3.7 1.4 5.4-.7 1.3-1.9 2.1-3.4 2.1-1 0-1.8-.5-2.3-1.5.7.1 1.3-.1 1.8-.8Z"/>
</g></symbol>
<symbol id="pinned" viewBox="0 0 24 24"><g id="pinned" fill="none" stroke="currentColor" stroke-width="1.8" stroke-linecap="round" stroke-linejoin="round">
  <path d="M9 5.5h6l-1 4 2.5 2.5H7.5L10 9.5 9 5.5Z"/>
  <path d="M12 12v7"/>
</g></symbol>
<symbol id="sync_delay" viewBox="0 0 24 24"><g id="sync_delay" fill="none" stroke="currentColor" stroke-width="1.8" stroke-linecap="round" stroke-linejoin="round">
  <path d="M10.5 8l-4 4 4 4"/>
  <path d="M16.5 8l-4 4 4 4"/>
</g></symbol>
<symbol id="sync_reset" viewBox="0 0 24 24"><g id="sync_reset" fill="none" stroke="currentColor" stroke-width="1.8" stroke-linecap="round" stroke-linejoin="round">
  <path d="M7.5 9.5H4.8V6.8"/>
  <path d="M4.8 9.5A7.2 7.2 0 1 1 7 17.9"/>
  <path d="M12 8.4v4.1l2.7 1.8"/>
</g></symbol>
<symbol id="sync_rush" viewBox="0 0 24 24"><g id="sync_rush" fill="none" stroke="currentColor" stroke-width="1.8" stroke-linecap="round" stroke-linejoin="round">
  <path d="M9.5 8l4 4-4 4"/>
  <path d="M15.5 8l4 4-4 4"/>
</g></symbol>
<symbol id="search" viewBox="0 0 24 24"><g id="search" fill="none" stroke="currentColor" stroke-width="1.8" stroke-linecap="round" stroke-linejoin="round">
  <circle cx="10.5" cy="10.5" r="5.5"/>
  <path d="M15 15l4 4"/>
</g></symbol>
<symbol id="clear" viewBox="0 0 24 24"><g id="clear" fill="none" stroke="currentColor" stroke-width="1.9" stroke-linecap="round" stroke-linejoin="round">
  <path d="M7 7l10 10"/>
  <path d="M17 7L7 17"/>
</g></symbol>
<symbol id="player_prev" viewBox="0 0 24 24"><g id="player_prev" fill="none" stroke="currentColor" stroke-width="1.8" stroke-linecap="round" stroke-linejoin="round">
  <path d="M7 7v10"/>
  <path d="M17 8l-6 4 6 4V8Z" fill="currentColor" stroke="currentColor"/>
</g></symbol>
<symbol id="player_play" viewBox="0 0 24 24"><g id="player_play" fill="none" stroke="currentColor" stroke-width="1.8" stroke-linecap="round" stroke-linejoin="round">
  <path d="M9 7.5l8 4.5-8 4.5V7.5Z" fill="currentColor" stroke="currentColor"/>
</g></symbol>
<symbol id="player_pause" viewBox="0 0 24 24"><g id="player_pause" fill="none" stroke="currentColor" stroke-width="1.8" stroke-linecap="round" stroke-linejoin="round">
  <rect x="8" y="7" width="2.8" height="10" rx="1.2" fill="currentColor" stroke="currentColor"/>
  <rect x="13.2" y="7" width="2.8" height="10" rx="1.2" fill="currentColor" stroke="currentColor"/>
</g></symbol>
<symbol id="player_next" viewBox="0 0 24 24"><g id="player_next" fill="none" stroke="currentColor" stroke-width="1.8" stroke-linecap="round" stroke-linejoin="round">
  <path d="M17 7v10"/>
  <path d="M7 8l6 4-6 4V8Z" fill="currentColor" stroke="currentColor"/>
</g></symbol>
<symbol id="track_playing" viewBox="0 0 24 24"><g id="track_playing" fill="none" stroke="currentColor" stroke-width="1.8" stroke-linecap="round" stroke-linejoin="round">
  <path d="M6.5 16.5v-3"/>
  <path d="M10.5 18v-6"/>
  <path d="M14.5 15v-3"/>
  <path d="M18.5 17.5v-5"/>
</g></symbol>
  </defs>
</svg>
